<?xml version="1.0" encoding="utf-8"?>
<!-- Generator: Adobe Illustrator 22.1.0, SVG Export Plug-In . SVG Version: 6.00 Build 0)  -->
<svg version="1.1" id="Layer_1" xmlns="http://www.w3.org/2000/svg" xmlns:xlink="http://www.w3.org/1999/xlink" x="0px" y="0px"
	 width="286.4px" height="120.7px" viewBox="0 0 286.4 120.7" style="enable-background:new 0 0 286.4 120.7;" xml:space="preserve"
	>
<style type="text/css">
	.st0{fill:#6D6E71;}
	.st1{fill:#FFFFFF;}
	.st2{fill:#DA2128;}
</style>
<path class="st0" d="M258,97.7l-247,23c-5.9,0.5-11-4.1-11-10v-99c0-5.5,4.5-10,10-10h275l-18.2,88C266,94,262.4,97.3,258,97.7z"/>
<path class="st1" d="M259.4,96l-247,23c-5.9,0.5-11-4.1-11-10V10c0-5.5,4.5-10,10-10h275l-18.2,88C267.4,92.3,263.8,95.6,259.4,96z"
	/>
<g>
	<path class="st2" d="M21.5,96L59,44.2c1.2-1.7,0-4-2-4H27.5c0-7.7,6.1-13.9,13.6-13.9h50.1l-34.3,52c-1.1,1.7,0.1,3.9,2,3.9h182.7
		L23.7,100C21.6,100.2,20.2,97.7,21.5,96"/>
	<path class="st2" d="M89.1,72.6l8.3-46.3h11.1c1.5,0,2.7,1.4,2.4,2.8l-8.3,46.3H91.5C90,75.4,88.9,74.1,89.1,72.6"/>
	<path class="st2" d="M99.2,17.2c0,3.5,2.8,5.3,5.9,5.3c3.8,0,8.1-2.4,8.1-7.2c0-3.6-2.9-5.4-5.9-5.4C103.4,10,99.2,12.4,99.2,17.2"
		/>
	<path class="st2" d="M139.3,74.2L132,60.7c-0.4-0.8-1.3-1.3-2.2-1.3h-4l-2.5,13.9c-0.2,1.2-1.2,2-2.4,2h-12.1l8.4-47.2
		c0.2-1.2,1.2-2,2.4-2H142c11.3,0,16.7,6.7,16.7,14.4c0,8.6-4.2,14.5-13.5,17.3l10.5,17.4h-14.1C140.6,75.4,139.8,74.9,139.3,74.2
		 M129.4,39.4l-1.8,9.8H138c7.2-0.5,9.8-11.8,2-11.8h-8.2C130.6,37.4,129.6,38.2,129.4,39.4"/>
	<path class="st2" d="M186.7,75.4h-10.4c-1.1,0-2.1-0.8-2.4-1.9l-11.5-47.3h12.1c1.1,0,2.1,0.8,2.4,1.9L184,59l18.8-31.6
		c0.4-0.7,1.2-1.2,2.1-1.2h12.7l-28.9,48C188.4,75,187.6,75.4,186.7,75.4"/>
	<path class="st2" d="M242.9,75.4H215l8.8-49.2h40.1c-1.2,6.7-7.1,11.7-14.1,11.7h-14.1l-1.2,7h26c-1.2,6.5-7,11.3-13.7,11.3h-14.4
		l-1.4,7.4h26.1C255.9,70.5,249.9,75.4,242.9,75.4"/>
</g>
</svg>
