<?xml version="1.0" encoding="utf-8"?>
<!-- Generator: Adobe Illustrator 22.1.0, SVG Export Plug-In . SVG Version: 6.00 Build 0)  -->
<svg version="1.1" id="Layer_1" xmlns="http://www.w3.org/2000/svg" xmlns:xlink="http://www.w3.org/1999/xlink" x="0px" y="0px"
	 width="270.6px" height="101.1px" viewBox="0 0 270.6 101.1" style="enable-background:new 0 0 270.6 101.1;" xml:space="preserve"
	>
<style type="text/css">
	.st0{fill:#111111;}
	.st1{fill:#DA2128;}
</style>
<g>
	<g>
		<path class="st0" d="M0.4,96.7L42,39.1c1.4-1.8,0-4.4-2.2-4.4H7.1c0-8.6,6.8-15.4,15.1-15.4h55.7L39.8,77
			c-1.3,1.8,0.1,4.3,2.2,4.3h203L2.9,101.1C0.5,101.2-0.9,98.6,0.4,96.7"/>
		<path class="st0" d="M75.6,70.7l9.2-51.5h12.4c1.7,0,3,1.5,2.6,3.2l-9.2,51.5H78.2C76.5,73.7,75.3,72.2,75.6,70.7"/>
		<path class="st0" d="M86.8,9.1c0,3.9,3.2,5.9,6.6,5.9c4.2,0,9-2.7,9-7.9c0-4-3.3-6-6.6-6C91.4,1.1,86.8,3.8,86.8,9.1"/>
		<path class="st0" d="M131.4,72.3l-8.1-14.9c-0.5-0.8-1.4-1.4-2.4-1.4h-4.4l-2.7,15.4c-0.2,1.3-1.4,2.2-2.6,2.2H97.5l9.3-52.4
			c0.2-1.3,1.4-2.2,2.6-2.2h24.7c12.6,0,18.5,7.5,18.5,16c0,9.5-4.7,16.2-15,19.2l11.6,19.3h-15.6C132.8,73.7,131.8,73.2,131.4,72.3
			 M120.3,33.7l-2,10.9h11.6c8-0.5,10.9-13.1,2.2-13.1H123C121.7,31.4,120.5,32.4,120.3,33.7"/>
		<path class="st0" d="M183.9,73.7h-11.5c-1.3,0-2.3-0.8-2.6-2l-12.7-52.5h13.4c1.3,0,2.4,0.8,2.6,2.1l7.9,34.4l20.9-35.2
			c0.5-0.8,1.4-1.4,2.3-1.4h14.1l-32,53.3C185.8,73.3,184.9,73.7,183.9,73.7"/>
		<path class="st0" d="M246.4,73.7h-30.9l9.7-54.6h44.5c-1.4,7.5-7.9,13-15.6,13h-15.8l-1.4,7.8h29c-1.4,7.3-7.7,12.6-15.2,12.6h-16
			l-1.5,8.2h29C260.8,68.3,254.1,73.7,246.4,73.7"/>
	</g>
</g>
<g>
	<g>
		<path class="st1" d="M1.3,95.6L42.9,38c1.4-1.8,0-4.4-2.2-4.4H8c0-8.6,6.8-15.4,15.1-15.4h55.7L40.7,75.9
			c-1.3,1.8,0.1,4.3,2.2,4.3h203L3.8,100C1.4,100.1,0,97.5,1.3,95.6"/>
		<path class="st1" d="M76.5,69.6l9.2-51.5h12.4c1.7,0,3,1.5,2.6,3.2l-9.2,51.5H79.1C77.4,72.6,76.2,71.1,76.5,69.6"/>
		<path class="st1" d="M87.7,8c0,3.9,3.2,5.9,6.6,5.9c4.2,0,9-2.7,9-7.9c0-4-3.3-6-6.6-6C92.3,0,87.7,2.7,87.7,8"/>
		<path class="st1" d="M132.3,71.2l-8.1-14.9c-0.5-0.8-1.4-1.4-2.4-1.4h-4.4l-2.7,15.4c-0.2,1.3-1.4,2.2-2.6,2.2H98.4l9.3-52.4
			c0.2-1.3,1.4-2.2,2.6-2.2H135c12.6,0,18.5,7.5,18.5,16c0,9.5-4.7,16.2-15,19.2l11.6,19.3h-15.6C133.7,72.6,132.7,72.1,132.3,71.2
			 M121.2,32.6l-2,10.9h11.6c8-0.5,10.9-13.1,2.2-13.1h-9.1C122.6,30.3,121.4,31.3,121.2,32.6"/>
		<path class="st1" d="M184.8,72.6h-11.5c-1.3,0-2.3-0.8-2.6-2L158,18.1h13.4c1.3,0,2.4,0.8,2.6,2.1l7.9,34.4l20.9-35.2
			c0.5-0.8,1.4-1.4,2.3-1.4h14.1l-32,53.3C186.7,72.2,185.8,72.6,184.8,72.6"/>
		<path class="st1" d="M247.3,72.6h-30.9l9.7-54.6h44.5c-1.4,7.5-7.9,13-15.6,13h-15.8l-1.4,7.8h29c-1.4,7.3-7.7,12.6-15.2,12.6h-16
			l-1.5,8.2h29C261.7,67.2,255,72.6,247.3,72.6"/>
	</g>
</g>
</svg>
