<?xml version="1.0" encoding="utf-8"?>
<!-- Generator: Adobe Illustrator 22.1.0, SVG Export Plug-In . SVG Version: 6.00 Build 0)  -->
<svg version="1.1" id="Layer_1" xmlns="http://www.w3.org/2000/svg" xmlns:xlink="http://www.w3.org/1999/xlink" x="0px" y="0px"
	 width="255.2px" height="100px" viewBox="0 0 255.2 100" style="enable-background:new 0 0 255.2 100;" xml:space="preserve">
<style type="text/css">
	.st0{fill:#DA2128;}
</style>
<g>
	<path class="st0" d="M0.5,90.4l39.4-54.5c1.3-1.7,0-4.2-2.1-4.2h-31c0-8.1,6.4-14.6,14.3-14.6h52.7L37.7,71.8
		c-1.2,1.7,0.1,4.1,2.1,4.1h192L2.8,94.6C0.6,94.7-0.8,92.2,0.5,90.4"/>
	<path class="st0" d="M71.6,65.8l8.7-48.7H92c1.6,0,2.8,1.4,2.5,3l-8.7,48.7H74.1C72.5,68.7,71.3,67.3,71.6,65.8"/>
	<path class="st0" d="M82.2,7.6c0,3.7,3,5.6,6.2,5.6c4,0,8.5-2.6,8.5-7.5c0-3.8-3.1-5.7-6.2-5.7C86.6,0,82.2,2.6,82.2,7.6"/>
	<path class="st0" d="M124.4,67.4l-7.7-14.1c-0.5-0.8-1.3-1.3-2.3-1.3h-4.2l-2.6,14.6c-0.2,1.2-1.3,2.1-2.5,2.1H92.3l8.8-49.6
		c0.2-1.2,1.3-2.1,2.5-2.1h23.4c11.9,0,17.5,7.1,17.5,15.1c0,9-4.4,15.3-14.2,18.2l11,18.3l-14.8,0
		C125.7,68.7,124.8,68.2,124.4,67.4 M113.9,30.8l-1.9,10.3H123c7.6-0.5,10.3-12.4,2.1-12.4h-8.6C115.2,28.7,114.1,29.6,113.9,30.8"
		/>
	<path class="st0" d="M174.1,68.7h-10.9c-1.2,0-2.2-0.8-2.5-1.9l-12-49.7h12.7c1.2,0,2.3,0.8,2.5,2l7.5,32.5l19.7-33.2
		c0.5-0.8,1.3-1.3,2.2-1.3h13.3l-30.3,50.4C175.9,68.3,175,68.7,174.1,68.7"/>
	<path class="st0" d="M233.2,68.7h-29.2l9.2-51.7h42.1c-1.3,7.1-7.5,12.3-14.8,12.3h-14.9l-1.3,7.4h27.4
		c-1.3,6.9-7.3,11.9-14.4,11.9h-15.1l-1.4,7.8h27.4C246.8,63.6,240.5,68.7,233.2,68.7"/>
	<g>
		<path class="st0" d="M124.3,93.8c0,4.3-3.6,6.2-6.9,6.2c-2.6,0-5-1.4-5-4.4c0-4.4,3.5-6.2,6.9-6.2
			C122.1,89.3,124.3,90.7,124.3,93.8z M120.6,94.3c0-1-0.6-1.9-1.8-1.9c-1.5,0-2.5,1.3-2.5,2.6c0,1,0.6,1.8,1.8,1.8
			C119.5,96.9,120.6,95.7,120.6,94.3z"/>
		<path class="st0" d="M131.8,86.7l-0.5,2.9h2.3l-0.5,2.9h-2.3l-0.6,3.3c-0.1,0.7,0.3,1,0.8,1c0.4,0,0.8-0.1,1.2-0.3l0.3,2.8
			c-0.9,0.5-2,0.7-3,0.7c-2,0-3.7-0.9-3.1-4.1l0.6-3.3h-1.6l0.5-2.9h1.6l0.5-2.5L131.8,86.7z"/>
		<path class="st0" d="M145.7,93.8c0,4.3-3.6,6.2-6.9,6.2c-2.6,0-5-1.4-5-4.4c0-4.4,3.5-6.2,6.9-6.2
			C143.5,89.3,145.7,90.7,145.7,93.8z M142,94.3c0-1-0.6-1.9-1.8-1.9c-1.5,0-2.5,1.3-2.5,2.6c0,1,0.6,1.8,1.8,1.8
			C140.9,96.9,142,95.7,142,94.3z"/>
		<path class="st0" d="M157.6,85.3l-1.3,7.2l2.6-3h4.2l0,0.2l-4.4,4.6l3.2,5.2l0,0.2h-4.3l-2-3.5l-0.6,3.5h-3.8l2.5-14.4H157.6z"/>
		<path class="st0" d="M162.9,99.8l1.8-10h3.8l-1.8,10H162.9z M164.9,87.2c0,1.1,0.9,1.6,1.8,1.6c1.2,0,2.5-0.7,2.5-2.2
			c0-1.1-0.9-1.6-1.8-1.6C166.2,85,164.9,85.8,164.9,87.2z"/>
		<path class="st0" d="M174.2,89.6l0,1.1c0.7-0.9,1.7-1.4,2.7-1.4c1,0,2,0.4,2.5,1.1l-2,2.7c-0.5-0.5-0.9-0.6-1.6-0.6
			c-0.9,0-1.9,0.6-2.1,1.9l-0.9,5.3H169l1.8-10.2H174.2z"/>
		<path class="st0" d="M187.9,89.6h3.6l-1.8,10.2h-3.5l0-1.1c-1,1-2.5,1.3-3.6,1.3c-2.5-0.1-3.8-1.9-3.8-4.3c0-3.5,2.6-6.3,6-6.3
			c1.4,0,2.4,0.5,2.8,1.3L187.9,89.6z M182.6,95.1c0,1.1,0.7,1.8,1.7,1.8c1.4,0,2.6-1.2,2.6-2.7c0-1.1-0.6-1.8-1.8-1.8
			C183.8,92.4,182.6,93.4,182.6,95.1z"/>
		<path class="st0" d="M198.2,85.3l-2.6,14.4h-3.8l2.6-14.4H198.2z"/>
		<path class="st0" d="M207.3,89.6h3.6l-1.8,10.2h-3.5l0-1.1c-1,1-2.5,1.3-3.6,1.3c-2.5-0.1-3.8-1.9-3.8-4.3c0-3.5,2.6-6.3,6-6.3
			c1.4,0,2.4,0.5,2.8,1.3L207.3,89.6z M202,95.1c0,1.1,0.7,1.8,1.7,1.8c1.4,0,2.6-1.2,2.6-2.7c0-1.1-0.6-1.8-1.8-1.8
			C203.2,92.4,202,93.4,202,95.1z"/>
		<path class="st0" d="M217.5,99.8l1-5.6c0.2-1.2-0.1-1.6-0.8-1.6c-0.6,0-1.4,0.5-1.6,1.6l-1,5.6h-3.8l1.8-10.2h3.2l0.1,1.1
			c0.8-0.9,2-1.3,3-1.3c1,0,1.9,0.5,2.3,1.4c1-1.1,2.2-1.5,3.6-1.5c2.2,0,3.6,1.4,3.1,4.7l-1,5.7h-3.8l1-5.6
			c0.2-1.1-0.2-1.5-0.8-1.5c-0.6,0-1.4,0.4-1.6,1.5l-1,5.6H217.5z"/>
		<path class="st0" d="M238.9,89.6h3.6l-1.8,10.2h-3.5l0-1.1c-1,1-2.5,1.3-3.6,1.3c-2.5-0.1-3.8-1.9-3.8-4.3c0-3.5,2.6-6.3,6-6.3
			c1.4,0,2.4,0.5,2.8,1.3L238.9,89.6z M233.6,95.1c0,1.1,0.7,1.8,1.7,1.8c1.4,0,2.6-1.2,2.6-2.7c0-1.1-0.6-1.8-1.8-1.8
			C234.8,92.4,233.6,93.4,233.6,95.1z"/>
	</g>
</g>
</svg>
