<?xml version="1.0" encoding="utf-8"?>
<!-- Generator: Adobe Illustrator 22.1.0, SVG Export Plug-In . SVG Version: 6.00 Build 0)  -->
<svg version="1.1" id="Layer_1" xmlns="http://www.w3.org/2000/svg" xmlns:xlink="http://www.w3.org/1999/xlink" x="0px" y="0px"
	 width="285px" height="120px" viewBox="0 0 285 120" style="enable-background:new 0 0 285 120;" xml:space="preserve">
<style type="text/css">
	.st0{fill:#FFFFFF;}
	.st1{enable-background:new    ;}
	.st2{clip-path:url(#SVGID_2_);enable-background:new    ;}
	.st3{fill:#8C151A;}
	.st4{fill:#871419;}
	.st5{fill:#831418;}
	.st6{fill:#7E1317;}
	.st7{fill:#7A1216;}
	.st8{fill:#761216;}
	.st9{fill:#711115;}
	.st10{fill:#BD1D23;}
	.st11{clip-path:url(#SVGID_4_);enable-background:new    ;}
	.st12{clip-path:url(#SVGID_6_);enable-background:new    ;}
	.st13{clip-path:url(#SVGID_8_);enable-background:new    ;}
	.st14{fill:#791216;}
	.st15{fill:#6D1114;}
	.st16{clip-path:url(#SVGID_10_);enable-background:new    ;}
	.st17{clip-path:url(#SVGID_12_);enable-background:new    ;}
	.st18{clip-path:url(#SVGID_14_);enable-background:new    ;}
	.st19{clip-path:url(#SVGID_16_);enable-background:new    ;}
	.st20{fill:#701115;}
	.st21{clip-path:url(#SVGID_18_);enable-background:new    ;}
	.st22{clip-path:url(#SVGID_20_);enable-background:new    ;}
	.st23{fill:#DA2128;}
</style>
<path class="st0" d="M258,96L11,119c-5.9,0.5-11-4.1-11-10V10C0,4.5,4.5,0,10,0h275l-18.2,88C266,92.3,262.4,95.6,258,96z"/>
<g>
	<g>
		<g class="st1">
			<g class="st1">
				<defs>
					<path id="SVGID_1_" class="st1" d="M110.9,12.2l2.6,3.6c0.1,0.2,0.3,0.4,0.4,0.6c0.1,0.2,0.2,0.4,0.3,0.7
						c0.1,0.2,0.1,0.5,0.2,0.7c0,0.3,0.1,0.5,0.1,0.8c0,1.1-0.2,2.1-0.7,2.9c-0.4,0.8-1,1.5-1.7,2.1c-0.7,0.5-1.5,1-2.4,1.2
						c-0.9,0.3-1.8,0.4-2.6,0.4c-0.4,0-0.7,0-1-0.1c-0.3-0.1-0.7-0.1-1-0.2c-0.3-0.1-0.6-0.2-0.9-0.4s-0.6-0.3-0.8-0.5l-3.5-2.8
						c0.3,0.2,0.6,0.4,0.9,0.6c0.3,0.2,0.6,0.3,1,0.4s0.7,0.2,1.1,0.3s0.8,0.1,1.1,0.1c0.9,0,1.9-0.2,2.9-0.5
						c0.9-0.3,1.8-0.8,2.6-1.4c0.8-0.6,1.4-1.4,1.9-2.3c0.5-0.9,0.7-1.9,0.7-3.1c0-0.3,0-0.6-0.1-0.9s-0.1-0.6-0.2-0.8
						c-0.1-0.3-0.2-0.5-0.3-0.7C111.1,12.6,111,12.4,110.9,12.2z"/>
				</defs>
				<clipPath id="SVGID_2_">
					<use xlink:href="#SVGID_1_"  style="overflow:visible;"/>
				</clipPath>
				<g class="st2">
					<path class="st3" d="M110.9,12.2l2.6,3.6c0,0.1,0.1,0.1,0.1,0.2s0.1,0.1,0.1,0.2s0.1,0.1,0.1,0.2c0,0.1,0.1,0.2,0.1,0.2
						l-2.5-3.5c0-0.1-0.1-0.2-0.1-0.3c0-0.1-0.1-0.2-0.1-0.2c0-0.1-0.1-0.2-0.1-0.2C111,12.4,110.9,12.3,110.9,12.2"/>
					<path class="st4" d="M111.4,13.2l2.5,3.5c0,0.1,0.1,0.1,0.1,0.2c0,0.1,0.1,0.2,0.1,0.2s0,0.2,0.1,0.2c0,0.1,0,0.2,0.1,0.2
						l-2.5-3.4c0-0.1,0-0.2-0.1-0.3s0-0.2-0.1-0.3c0-0.1-0.1-0.2-0.1-0.3C111.5,13.3,111.4,13.2,111.4,13.2"/>
					<path class="st5" d="M111.7,14.2l2.5,3.4c0,0.1,0,0.1,0,0.2c0,0.1,0,0.1,0,0.2c0,0.1,0,0.1,0,0.2c0,0.1,0,0.2,0,0.2l-2.5-3.4
						c0-0.1,0-0.2,0-0.3s0-0.2,0-0.2s0-0.2,0-0.2C111.7,14.4,111.7,14.3,111.7,14.2"/>
					<path class="st6" d="M111.8,15.2l2.5,3.4c0,0,0,0,0,0c0,0,0,0,0,0c0,0,0,0,0,0s0,0,0,0c0,0.1,0,0.2,0,0.2s0,0.2,0,0.2
						c0,0.1,0,0.1,0,0.2c0,0.1,0,0.1,0,0.2l-2.5-3.3c0-0.1,0-0.2,0-0.2c0-0.1,0-0.2,0-0.2c0-0.1,0-0.2,0-0.2c0-0.1,0-0.2,0-0.3
						c0,0,0,0,0,0C111.8,15.3,111.8,15.2,111.8,15.2C111.8,15.2,111.8,15.2,111.8,15.2C111.8,15.2,111.8,15.2,111.8,15.2"/>
					<path class="st7" d="M111.7,16.3l2.5,3.3c0,0.1,0,0.2,0,0.2c0,0.1,0,0.2,0,0.2c0,0.1,0,0.2-0.1,0.2c0,0.1,0,0.2-0.1,0.2
						l-2.5-3.2c0-0.1,0-0.2,0.1-0.3s0-0.2,0.1-0.3c0-0.1,0-0.2,0.1-0.3C111.7,16.5,111.7,16.4,111.7,16.3"/>
					<path class="st8" d="M111.5,17.3l2.5,3.2c0,0.1-0.1,0.2-0.1,0.3s-0.1,0.2-0.1,0.3s-0.1,0.2-0.1,0.2c0,0.1-0.1,0.2-0.1,0.2
						l-2.5-3.1c0-0.1,0.1-0.2,0.1-0.3c0-0.1,0.1-0.2,0.1-0.3c0-0.1,0.1-0.2,0.1-0.3C111.5,17.5,111.5,17.4,111.5,17.3"/>
					<path class="st9" d="M111.1,18.4l2.5,3.1c-0.3,0.6-0.7,1.2-1.2,1.6c-0.5,0.5-1,0.9-1.7,1.2c-0.6,0.3-1.2,0.5-1.9,0.7
						c-0.7,0.2-1.3,0.2-2,0.2c-0.4,0-0.7,0-1-0.1c-0.3-0.1-0.7-0.1-1-0.2c-0.3-0.1-0.6-0.2-0.9-0.4s-0.6-0.3-0.8-0.5l-3.5-2.8
						c0.3,0.2,0.6,0.4,0.9,0.6c0.3,0.2,0.6,0.3,1,0.4s0.7,0.2,1.1,0.3s0.8,0.1,1.1,0.1c0.7,0,1.4-0.1,2.2-0.3
						c0.7-0.2,1.4-0.4,2.1-0.8c0.7-0.3,1.3-0.8,1.8-1.3C110.3,19.7,110.7,19.1,111.1,18.4"/>
				</g>
			</g>
			<g>
				<path class="st10" d="M105.9,9.9c0.7,0,1.5,0.1,2.2,0.3s1.3,0.6,1.9,1c0.5,0.4,1,1,1.3,1.7c0.3,0.7,0.5,1.5,0.5,2.4
					c0,1.2-0.3,2.2-0.7,3.1c-0.5,0.9-1.1,1.6-1.9,2.3c-0.8,0.6-1.7,1.1-2.6,1.4c-0.9,0.3-1.9,0.5-2.9,0.5c-0.8,0-1.5-0.1-2.2-0.3
					c-0.7-0.2-1.3-0.6-1.9-1c-0.5-0.4-1-1-1.3-1.7c-0.3-0.7-0.5-1.4-0.5-2.3c0-1.2,0.3-2.3,0.7-3.2c0.5-0.9,1.1-1.7,1.9-2.3
					c0.8-0.6,1.7-1.1,2.6-1.4C103.9,10.1,104.9,9.9,105.9,9.9z"/>
			</g>
		</g>
		<g class="st1">
			<g>
				<polygon class="st7" points="57.5,82.2 64.5,79.9 231.9,79.9 240.2,82.2 				"/>
			</g>
			<g class="st1">
				<defs>
					<path id="SVGID_3_" class="st1" d="M55.5,78.3l7.2-2c-0.3,0.4-0.4,0.8-0.4,1.2c0,0.4,0.1,0.8,0.3,1.2c0.2,0.3,0.5,0.6,0.8,0.9
						c0.3,0.2,0.7,0.3,1.2,0.3l-7,2.3c-0.5,0-0.9-0.1-1.3-0.4c-0.4-0.2-0.7-0.6-0.9-0.9c-0.2-0.4-0.3-0.8-0.3-1.3
						C55.1,79.2,55.2,78.7,55.5,78.3z"/>
				</defs>
				<clipPath id="SVGID_4_">
					<use xlink:href="#SVGID_3_"  style="overflow:visible;"/>
				</clipPath>
				<g class="st11">
					<path class="st9" d="M55.5,78.3l7.2-2c0,0,0,0,0,0.1c0,0,0,0,0,0.1c0,0,0,0,0,0.1s0,0,0,0.1l-7.2,2c0,0,0,0,0-0.1
						c0,0,0,0,0-0.1C55.4,78.4,55.5,78.4,55.5,78.3C55.5,78.3,55.5,78.3,55.5,78.3"/>
					<path class="st8" d="M55.4,78.6l7.2-2c0,0,0,0.1,0,0.1c0,0,0,0.1,0,0.1s0,0.1,0,0.1c0,0,0,0.1,0,0.1l-7.2,2c0,0,0-0.1,0-0.1
						c0,0,0-0.1,0-0.1c0,0,0-0.1,0-0.1C55.3,78.6,55.3,78.6,55.4,78.6"/>
					<path class="st7" d="M55.2,79l7.2-2c0,0,0,0.1,0,0.1c0,0,0,0.1,0,0.1c0,0,0,0.1,0,0.1c0,0,0,0.1,0,0.1l-7.2,2.1
						c0,0,0-0.1,0-0.1c0,0,0-0.1,0-0.1C55.1,79.2,55.1,79.1,55.2,79C55.2,79.1,55.2,79,55.2,79"/>
					<path class="st6" d="M55.1,79.4l7.2-2.1c0,0,0,0.1,0,0.1s0,0.1,0,0.1c0,0,0,0.1,0,0.1c0,0,0,0.1,0,0.1l-7.3,2.1
						c0,0,0-0.1,0-0.1c0,0,0-0.1,0-0.1C55.1,79.5,55.1,79.5,55.1,79.4C55.1,79.4,55.1,79.4,55.1,79.4"/>
					<path class="st5" d="M55.1,79.8l7.3-2.1c0,0,0,0.1,0,0.1c0,0,0,0.1,0,0.1c0,0,0,0.1,0,0.1c0,0,0,0.1,0,0.1l-7.2,2.1
						c0,0,0-0.1,0-0.1c0,0,0-0.1,0-0.1c0,0,0-0.1,0-0.1C55.1,79.8,55.1,79.8,55.1,79.8"/>
					<path class="st4" d="M55.1,80.2l7.2-2.1c0,0,0,0.1,0,0.1c0,0,0,0.1,0,0.1c0,0,0,0.1,0,0.1c0,0,0,0.1,0,0.1l-7.2,2.2
						c0,0,0-0.1,0-0.1c0,0,0-0.1,0-0.1c0,0,0-0.1,0-0.1C55.1,80.2,55.1,80.2,55.1,80.2"/>
					<path class="st3" d="M55.3,80.7l7.2-2.2c0,0.1,0.1,0.2,0.2,0.3c0.1,0.1,0.1,0.2,0.2,0.3s0.2,0.2,0.2,0.3s0.2,0.2,0.3,0.2
						l-7.2,2.3c-0.1-0.1-0.2-0.1-0.3-0.2c-0.1-0.1-0.2-0.2-0.3-0.3s-0.2-0.2-0.2-0.3C55.4,80.9,55.3,80.8,55.3,80.7"/>
					<path class="st4" d="M56.3,81.8l7.2-2.3c0,0,0.1,0,0.1,0.1c0,0,0.1,0,0.1,0.1c0,0,0.1,0,0.1,0c0,0,0.1,0,0.1,0l-7.1,2.3
						c0,0-0.1,0-0.1,0c0,0-0.1,0-0.1-0.1s-0.1,0-0.1-0.1S56.3,81.9,56.3,81.8"/>
					<path class="st5" d="M56.7,82.1l7.1-2.3c0,0,0.1,0,0.1,0c0,0,0.1,0,0.1,0s0.1,0,0.1,0c0,0,0.1,0,0.1,0l-7.1,2.3
						c0,0-0.1,0-0.1,0s-0.1,0-0.1,0C56.8,82.1,56.8,82.1,56.7,82.1C56.8,82.1,56.7,82.1,56.7,82.1"/>
					<path class="st6" d="M57.1,82.2l7.1-2.3c0,0,0.1,0,0.1,0s0.1,0,0.1,0s0.1,0,0.1,0c0,0,0.1,0,0.1,0l-7.1,2.3c0,0-0.1,0-0.1,0
						c0,0-0.1,0-0.1,0C57.2,82.2,57.2,82.2,57.1,82.2C57.1,82.2,57.1,82.2,57.1,82.2"/>
					<path class="st7" d="M57.4,82.2l7.1-2.3c0,0,0,0,0,0c0,0,0,0,0,0s0,0,0,0c0,0,0,0,0,0L57.4,82.2C57.5,82.2,57.5,82.2,57.4,82.2
						C57.5,82.2,57.5,82.2,57.4,82.2C57.5,82.2,57.4,82.2,57.4,82.2C57.4,82.2,57.4,82.2,57.4,82.2"/>
				</g>
			</g>
			<g class="st1">
				<defs>
					<path id="SVGID_5_" class="st1" d="M173.6,75l-2.7-1.7c-0.1-0.1-0.2-0.2-0.4-0.3c-0.1-0.1-0.2-0.2-0.3-0.3s-0.2-0.2-0.2-0.4
						c-0.1-0.1-0.1-0.3-0.2-0.4l2.6,1.6c0,0.2,0.1,0.3,0.2,0.5c0.1,0.1,0.2,0.3,0.3,0.4s0.2,0.3,0.3,0.4
						C173.4,74.9,173.5,74.9,173.6,75z"/>
				</defs>
				<clipPath id="SVGID_6_">
					<use xlink:href="#SVGID_5_"  style="overflow:visible;"/>
				</clipPath>
				<g class="st12">
					<path class="st9" d="M173.6,75l-2.7-1.7c-0.1-0.1-0.2-0.2-0.4-0.3c-0.1-0.1-0.2-0.2-0.3-0.3s-0.2-0.2-0.2-0.4
						c-0.1-0.1-0.1-0.3-0.2-0.4l2.6,1.6c0,0.2,0.1,0.3,0.2,0.5c0.1,0.1,0.2,0.3,0.3,0.4s0.2,0.3,0.3,0.4
						C173.4,74.9,173.5,74.9,173.6,75"/>
				</g>
			</g>
			<g class="st1">
				<defs>
					<path id="SVGID_7_" class="st1" d="M122.9,73l-1.7,1.7c0.1-0.1,0.2-0.2,0.2-0.3c0.1-0.1,0.1-0.2,0.2-0.3s0.1-0.2,0.1-0.3
						s0.1-0.2,0.1-0.4l1.6-1.5c0,0.1,0,0.2-0.1,0.3s-0.1,0.2-0.1,0.3c-0.1,0.1-0.1,0.2-0.2,0.3C123.1,72.8,123,72.9,122.9,73z"/>
				</defs>
				<clipPath id="SVGID_8_">
					<use xlink:href="#SVGID_7_"  style="overflow:visible;"/>
				</clipPath>
				<g class="st13">
					<path class="st7" d="M121.9,73.3l1.6-1.5c0,0,0,0,0,0.1c0,0,0,0,0,0.1s0,0,0,0.1c0,0,0,0,0,0.1l-1.6,1.6c0,0,0,0,0-0.1
						c0,0,0,0,0-0.1C121.9,73.4,121.9,73.4,121.9,73.3C121.9,73.4,121.9,73.3,121.9,73.3"/>
					<path class="st8" d="M121.8,73.6l1.6-1.6c0,0,0,0.1,0,0.1s0,0.1,0,0.1c0,0,0,0.1,0,0.1s0,0.1,0,0.1l-1.6,1.6c0,0,0-0.1,0-0.1
						s0-0.1,0-0.1c0,0,0-0.1,0-0.1C121.8,73.7,121.8,73.6,121.8,73.6"/>
					<path class="st9" d="M121.7,74l1.6-1.6c0,0.1-0.1,0.1-0.1,0.2c0,0-0.1,0.1-0.1,0.1s-0.1,0.1-0.1,0.1c0,0-0.1,0.1-0.1,0.1
						l-1.7,1.7c0,0,0.1-0.1,0.1-0.1s0.1-0.1,0.1-0.1c0-0.1,0.1-0.1,0.1-0.2S121.6,74.1,121.7,74"/>
				</g>
			</g>
			<g>
				<polygon class="st14" points="229.6,63.6 222.2,62.9 246.1,62.9 255.7,63.6 				"/>
			</g>
			<g>
				<polygon class="st14" points="124.4,59.4 125.8,59 123.5,71.8 121.9,73.3 				"/>
			</g>
			<g>
				<polygon class="st15" points="55.6,40.2 62.8,41.4 35.8,41.4 26.1,40.2 				"/>
			</g>
			<g class="st1">
				<defs>
					<path id="SVGID_9_" class="st1" d="M56,40.2l7.2,1.2c0,0-0.1,0-0.1,0s-0.1,0-0.1,0c0,0-0.1,0-0.1,0c0,0-0.1,0-0.1,0l-7.2-1.2
						c0,0,0.1,0,0.1,0c0,0,0.1,0,0.1,0c0,0,0.1,0,0.1,0C56,40.2,56,40.2,56,40.2z"/>
				</defs>
				<clipPath id="SVGID_10_">
					<use xlink:href="#SVGID_9_"  style="overflow:visible;"/>
				</clipPath>
				<g class="st16">
					<path class="st9" d="M56,40.2l7.2,1.2c0,0-0.1,0-0.1,0s-0.1,0-0.1,0c0,0-0.1,0-0.1,0c0,0-0.1,0-0.1,0l-7.2-1.2c0,0,0.1,0,0.1,0
						c0,0,0.1,0,0.1,0c0,0,0.1,0,0.1,0C56,40.2,56,40.2,56,40.2"/>
				</g>
			</g>
			<g>
				<polygon class="st14" points="128,39.4 129.1,40.7 127.5,49.7 126.2,49.2 				"/>
			</g>
			<g>
				<polygon class="st15" points="248.4,37.9 239.4,39.3 226.5,39.3 234.3,37.9 				"/>
			</g>
			<g class="st1">
				<defs>
					<path id="SVGID_11_" class="st1" d="M143.3,42.9l-0.2,1c0.1-0.6,0.1-1.3,0-1.9c-0.1-0.6-0.3-1.1-0.7-1.6s-0.8-0.9-1.4-1.1
						s-1.3-0.4-2.2-0.4l-0.2-1.5c1,0,1.8,0.2,2.4,0.5c0.7,0.3,1.2,0.7,1.5,1.2c0.4,0.5,0.6,1.1,0.7,1.8
						C143.4,41.5,143.4,42.2,143.3,42.9z"/>
				</defs>
				<clipPath id="SVGID_12_">
					<use xlink:href="#SVGID_11_"  style="overflow:visible;"/>
				</clipPath>
				<g class="st17">
					<path class="st9" d="M143.3,42.9l-0.2,1c0.1-0.6,0.1-1.3,0-1.9c-0.1-0.6-0.3-1.1-0.7-1.6s-0.8-0.9-1.4-1.1s-1.3-0.4-2.2-0.4
						l-0.2-1.5c1,0,1.8,0.2,2.4,0.5c0.7,0.3,1.2,0.7,1.5,1.2c0.4,0.5,0.6,1.1,0.7,1.8C143.4,41.5,143.4,42.2,143.3,42.9"/>
				</g>
			</g>
			<g>
				<polygon class="st15" points="138.6,37.4 138.8,38.9 131.3,38.9 130.4,37.4 				"/>
			</g>
			<g class="st1">
				<defs>
					<path id="SVGID_13_" class="st1" d="M130.4,37.4l0.9,1.5c-0.3,0-0.5,0-0.8,0.1c-0.2,0.1-0.5,0.2-0.7,0.4
						c-0.2,0.2-0.4,0.4-0.5,0.6s-0.2,0.5-0.3,0.7l-1.1-1.3c0-0.3,0.1-0.6,0.3-0.8c0.1-0.2,0.3-0.5,0.5-0.6c0.2-0.2,0.5-0.3,0.7-0.4
						C129.8,37.4,130.1,37.4,130.4,37.4z"/>
				</defs>
				<clipPath id="SVGID_14_">
					<use xlink:href="#SVGID_13_"  style="overflow:visible;"/>
				</clipPath>
				<g class="st18">
					<path class="st9" d="M130.4,37.4l0.9,1.5c-0.2,0-0.4,0-0.6,0.1c-0.2,0.1-0.4,0.1-0.6,0.2s-0.3,0.2-0.5,0.4
						c-0.1,0.1-0.3,0.3-0.3,0.5l-1.1-1.4c0.1-0.2,0.2-0.4,0.4-0.5c0.1-0.2,0.3-0.3,0.5-0.4c0.2-0.1,0.4-0.2,0.6-0.3
						C129.9,37.4,130.2,37.4,130.4,37.4"/>
					<path class="st8" d="M128.2,38.7l1.1,1.4c0,0,0,0.1,0,0.1c0,0,0,0.1,0,0.1c0,0,0,0.1,0,0.1c0,0,0,0.1,0,0.1l-1.1-1.3
						c0,0,0-0.1,0-0.1c0,0,0-0.1,0-0.1S128.2,38.8,128.2,38.7C128.2,38.8,128.2,38.7,128.2,38.7"/>
					<path class="st7" d="M128.1,39.1l1.1,1.3c0,0,0,0,0,0.1c0,0,0,0,0,0.1c0,0,0,0,0,0.1c0,0,0,0,0,0.1l-1.1-1.3c0,0,0-0.1,0-0.1
						s0-0.1,0-0.1C128,39.2,128,39.2,128.1,39.1C128.1,39.1,128.1,39.1,128.1,39.1"/>
				</g>
			</g>
			<g>
				<polygon class="st14" points="109.5,29.1 112.2,31.3 104.6,73.7 101.2,75.4 				"/>
			</g>
			<g>
				<polygon class="st15" points="182.6,59 179.1,58.7 196.3,29.7 201.4,27.4 				"/>
			</g>
			<g class="st1">
				<defs>
					<path id="SVGID_15_" class="st1" d="M197.3,28.8l5.2-2.4c-0.1,0.1-0.2,0.1-0.3,0.2s-0.2,0.1-0.3,0.2c-0.1,0.1-0.2,0.2-0.2,0.3
						s-0.1,0.2-0.2,0.3l-5.1,2.3c0.1-0.1,0.1-0.2,0.2-0.3c0.1-0.1,0.1-0.2,0.2-0.2c0.1-0.1,0.2-0.1,0.3-0.2
						C197.1,28.9,197.2,28.9,197.3,28.8z"/>
				</defs>
				<clipPath id="SVGID_16_">
					<use xlink:href="#SVGID_15_"  style="overflow:visible;"/>
				</clipPath>
				<g class="st19">
					<path class="st9" d="M201.4,27.4l-5.1,2.3c0.1-0.1,0.1-0.2,0.2-0.3c0.1-0.1,0.1-0.2,0.2-0.2c0.1-0.1,0.2-0.1,0.3-0.2
						c0.1-0.1,0.2-0.1,0.3-0.2l5.2-2.4c-0.1,0.1-0.2,0.1-0.3,0.2s-0.2,0.1-0.3,0.2c-0.1,0.1-0.2,0.2-0.2,0.3S201.5,27.3,201.4,27.4"
						/>
				</g>
			</g>
			<g>
				<path class="st10" d="M89.8,26.3l-34.3,52c-0.3,0.4-0.4,0.9-0.4,1.3c0,0.4,0.1,0.9,0.3,1.3c0.2,0.4,0.5,0.7,0.9,0.9
					c0.4,0.2,0.8,0.4,1.3,0.4h182.7L22.3,100c-0.6,0-1-0.1-1.5-0.4c-0.4-0.2-0.7-0.6-0.9-1c-0.2-0.4-0.3-0.8-0.3-1.3
					c0-0.5,0.2-0.9,0.5-1.3l37.5-51.8c0.3-0.4,0.4-0.9,0.5-1.3S58,42,57.8,41.6c-0.2-0.4-0.5-0.7-0.9-1c-0.4-0.2-0.8-0.4-1.3-0.4
					H26.1c0-1.9,0.4-3.8,1.1-5.4c0.7-1.7,1.7-3.2,2.9-4.4c1.2-1.3,2.7-2.3,4.3-3s3.4-1.1,5.3-1.1H89.8z"/>
			</g>
			<g>
				<polygon class="st20" points="89.8,26.3 94.1,28.7 62.7,76.3 55.5,78.3 				"/>
			</g>
			<g class="st1">
				<defs>
					<path id="SVGID_17_" class="st1" d="M108.7,26.9l2.7,2.4c0.1,0.1,0.3,0.3,0.4,0.4s0.2,0.3,0.3,0.5c0.1,0.2,0.1,0.4,0.1,0.5
						c0,0.2,0,0.4,0,0.6l-2.7-2.2c0-0.2,0.1-0.4,0-0.6c0-0.2-0.1-0.4-0.1-0.6c-0.1-0.2-0.2-0.4-0.3-0.5
						C109,27.2,108.9,27,108.7,26.9z"/>
				</defs>
				<clipPath id="SVGID_18_">
					<use xlink:href="#SVGID_17_"  style="overflow:visible;"/>
				</clipPath>
				<g class="st21">
					<path class="st3" d="M108.7,26.9l2.7,2.4c0.1,0.1,0.1,0.1,0.2,0.2c0.1,0.1,0.1,0.1,0.2,0.2c0.1,0.1,0.1,0.1,0.1,0.2
						c0,0.1,0.1,0.2,0.1,0.2l-2.7-2.3c0-0.1-0.1-0.2-0.1-0.3c0-0.1-0.1-0.2-0.2-0.2s-0.1-0.2-0.2-0.2C108.9,27,108.8,27,108.7,26.9"
						/>
					<path class="st4" d="M109.4,27.8l2.7,2.3c0,0,0,0.1,0,0.1c0,0,0,0.1,0,0.1c0,0,0,0.1,0,0.1c0,0,0,0.1,0,0.1l-2.7-2.2
						c0,0,0-0.1,0-0.1c0,0,0-0.1,0-0.1c0,0,0-0.1,0-0.1C109.4,27.9,109.4,27.9,109.4,27.8"/>
					<path class="st5" d="M109.5,28.3l2.7,2.2c0,0,0,0.1,0,0.1c0,0,0,0.1,0,0.1c0,0,0,0.1,0,0.1c0,0,0,0.1,0,0.1l-2.7-2.2
						c0,0,0-0.1,0-0.1c0,0,0-0.1,0-0.1C109.5,28.4,109.5,28.4,109.5,28.3C109.5,28.3,109.5,28.3,109.5,28.3"/>
					<path class="st6" d="M109.5,28.6l2.7,2.2c0,0,0,0,0,0.1c0,0,0,0,0,0.1c0,0,0,0,0,0.1c0,0,0,0,0,0.1l-2.7-2.2c0,0,0-0.1,0-0.1
						s0-0.1,0-0.1C109.5,28.8,109.5,28.7,109.5,28.6C109.5,28.7,109.5,28.6,109.5,28.6"/>
					<path class="st7" d="M109.5,28.9l2.7,2.2c0,0,0,0,0,0c0,0,0,0,0,0s0,0,0,0c0,0,0,0,0,0l-2.7-2.2c0,0,0,0,0,0
						S109.5,29,109.5,28.9C109.5,29,109.5,29,109.5,28.9C109.5,29,109.5,29,109.5,28.9"/>
				</g>
			</g>
			<g>
				<path class="st10" d="M107.1,26.3c0.4,0,0.7,0.1,1.1,0.2c0.3,0.2,0.6,0.4,0.8,0.6s0.4,0.6,0.5,0.9c0.1,0.3,0.1,0.7,0,1
					l-8.3,46.3H90.1c-0.4,0-0.7-0.1-1-0.2c-0.3-0.1-0.6-0.4-0.8-0.6c-0.2-0.3-0.4-0.6-0.5-0.9c-0.1-0.3-0.1-0.7-0.1-1.1L96,26.3
					H107.1z"/>
			</g>
			<g>
				<polygon class="st15" points="172.5,73.5 169.9,71.9 159.3,28.6 161,26.2 				"/>
			</g>
			<g>
				<path class="st10" d="M262.5,26.2c-0.3,1.7-0.9,3.2-1.7,4.7c-0.8,1.4-1.9,2.7-3.2,3.7c-1.2,1-2.7,1.9-4.2,2.5
					c-1.6,0.6-3.2,0.9-5,0.9h-14.1l-1.2,7h26c-0.3,1.6-0.9,3.1-1.7,4.5c-0.8,1.4-1.9,2.6-3.1,3.6c-1.2,1-2.6,1.8-4.1,2.4
					s-3.1,0.9-4.8,0.9H231l-1.4,7.4h26.1c-0.3,1.7-0.9,3.3-1.7,4.8s-1.9,2.7-3.2,3.7c-1.3,1-2.7,1.9-4.3,2.4c-1.6,0.6-3.3,0.9-5,0.9
					h-27.9l8.8-49.2H262.5z"/>
			</g>
			<g class="st1">
				<defs>
					<path id="SVGID_19_" class="st1" d="M250.7,37.7l-9.2,1.5c-0.2,0-0.3,0-0.5,0.1c-0.2,0-0.3,0-0.5,0.1s-0.3,0-0.5,0
						c-0.2,0-0.3,0-0.5,0l9-1.4c0.2,0,0.4,0,0.6,0c0.2,0,0.4,0,0.6,0c0.2,0,0.4,0,0.6-0.1C250.3,37.8,250.5,37.8,250.7,37.7z"/>
				</defs>
				<clipPath id="SVGID_20_">
					<use xlink:href="#SVGID_19_"  style="overflow:visible;"/>
				</clipPath>
				<g class="st22">
					<path class="st9" d="M250.7,37.7l-9.2,1.5c-0.2,0-0.3,0-0.5,0.1c-0.2,0-0.3,0-0.5,0.1s-0.3,0-0.5,0c-0.2,0-0.3,0-0.5,0l9-1.4
						c0.2,0,0.4,0,0.6,0c0.2,0,0.4,0,0.6,0c0.2,0,0.4,0,0.6-0.1C250.3,37.8,250.5,37.8,250.7,37.7"/>
				</g>
			</g>
			<g>
				<path class="st10" d="M216.2,26.2l-28.9,48c-0.1,0.2-0.2,0.4-0.3,0.5c-0.1,0.1-0.3,0.3-0.5,0.4s-0.4,0.2-0.6,0.2
					c-0.2,0-0.4,0.1-0.7,0.1h-10.4c-0.3,0-0.5,0-0.8-0.1c-0.3-0.1-0.5-0.2-0.7-0.4c-0.2-0.2-0.4-0.4-0.6-0.6
					c-0.2-0.2-0.3-0.5-0.3-0.8L161,26.2h12.1c0.3,0,0.5,0.1,0.8,0.1c0.3,0.1,0.5,0.2,0.7,0.4c0.2,0.2,0.4,0.4,0.6,0.6
					c0.2,0.2,0.3,0.5,0.3,0.8l7.1,30.9l18.8-31.6c0.1-0.2,0.2-0.3,0.4-0.5c0.1-0.1,0.3-0.3,0.5-0.4c0.2-0.1,0.4-0.2,0.6-0.2
					c0.2-0.1,0.4-0.1,0.7-0.1H216.2z"/>
			</g>
			<g>
				<polygon class="st15" points="213.6,75.4 207.5,73.7 215.6,28.6 222.4,26.2 				"/>
			</g>
			<g>
				<path class="st10" d="M157.3,40.5c0,2.1-0.3,4.1-0.8,5.9c-0.5,1.8-1.4,3.4-2.5,4.9s-2.5,2.7-4.2,3.8c-1.7,1.1-3.7,2-6,2.7
					l10.5,17.4h-14.1c0,0-0.1,0-0.1,0c0,0-0.1,0-0.1,0s-0.1,0-0.1,0c0,0-0.1,0-0.1,0c-0.2,0-0.4,0-0.6-0.1c-0.2-0.1-0.3-0.1-0.5-0.2
					c-0.2-0.1-0.3-0.2-0.4-0.3c-0.1-0.1-0.3-0.3-0.4-0.4l-7.3-13.5c-0.1-0.2-0.2-0.4-0.4-0.5s-0.3-0.3-0.5-0.4
					c-0.2-0.1-0.4-0.2-0.6-0.3c-0.2-0.1-0.4-0.1-0.7-0.1h-4l-2.5,13.9c0,0.3-0.1,0.6-0.3,0.8c-0.1,0.2-0.3,0.5-0.5,0.6
					c-0.2,0.2-0.5,0.3-0.7,0.4c-0.3,0.1-0.6,0.1-0.9,0.1h-12.1l8.4-47.2c0-0.3,0.1-0.6,0.3-0.8c0.1-0.2,0.3-0.5,0.5-0.6
					s0.5-0.3,0.7-0.4c0.3-0.1,0.6-0.1,0.9-0.1h22.4c2.8,0,5.3,0.4,7.4,1.2s3.8,1.8,5.2,3.1c1.4,1.3,2.4,2.9,3.1,4.6
					C157,36.7,157.3,38.6,157.3,40.5z M136.6,49.2c1.8-0.1,3.3-0.9,4.4-2.1s1.9-2.6,2.2-4c0.3-1.4,0.1-2.9-0.6-3.9
					c-0.7-1.1-2-1.8-4-1.8h-8.2c-0.3,0-0.6,0.1-0.9,0.1c-0.3,0.1-0.5,0.2-0.7,0.4c-0.2,0.2-0.4,0.4-0.5,0.6
					c-0.1,0.2-0.2,0.5-0.3,0.8l-1.8,9.8H136.6"/>
			</g>
		</g>
	</g>
</g>
<g>
	<path class="st23" d="M20.1,96l37.5-51.8c1.2-1.7,0-4-2-4H26.1c0-7.7,6.1-13.9,13.6-13.9h50.1l-34.3,52c-1.1,1.7,0.1,3.9,2,3.9
		h182.7L22.3,100C20.2,100.2,18.8,97.7,20.1,96"/>
	<path class="st23" d="M87.7,72.6L96,26.3h11.1c1.5,0,2.7,1.4,2.4,2.8l-8.3,46.3H90.1C88.6,75.4,87.5,74.1,87.7,72.6"/>
	<path class="st23" d="M97.8,17.2c0,3.5,2.8,5.3,5.9,5.3c3.8,0,8.1-2.4,8.1-7.2c0-3.6-2.9-5.4-5.9-5.4C102,10,97.8,12.4,97.8,17.2"
		/>
	<path class="st23" d="M137.9,74.2l-7.3-13.5c-0.4-0.8-1.3-1.3-2.2-1.3h-4l-2.5,13.9c-0.2,1.2-1.2,2-2.4,2h-12.1l8.4-47.2
		c0.2-1.2,1.2-2,2.4-2h22.4c11.3,0,16.7,6.7,16.7,14.4c0,8.6-4.2,14.5-13.5,17.3l10.5,17.4h-14.1C139.2,75.4,138.4,74.9,137.9,74.2
		 M128,39.4l-1.8,9.8h10.4c7.2-0.5,9.8-11.8,2-11.8h-8.2C129.2,37.4,128.2,38.2,128,39.4"/>
	<path class="st23" d="M185.3,75.4h-10.4c-1.1,0-2.1-0.8-2.4-1.9L161,26.2h12.1c1.1,0,2.1,0.8,2.4,1.9l7.1,30.9l18.8-31.6
		c0.4-0.7,1.2-1.2,2.1-1.2h12.7l-28.9,48C187,75,186.2,75.4,185.3,75.4"/>
	<path class="st23" d="M241.5,75.4h-27.9l8.8-49.2h40.1c-1.2,6.7-7.1,11.7-14.1,11.7h-14.1l-1.2,7h26c-1.2,6.5-7,11.3-13.7,11.3H231
		l-1.4,7.4h26.1C254.5,70.5,248.5,75.4,241.5,75.4"/>
</g>
</svg>
