<?xml version="1.0" encoding="utf-8"?>
<!-- Generator: Adobe Illustrator 22.0.1, SVG Export Plug-In . SVG Version: 6.00 Build 0)  -->
<svg version="1.1" id="Layer_1" xmlns="http://www.w3.org/2000/svg" xmlns:xlink="http://www.w3.org/1999/xlink" x="0px" y="0px"
	 viewBox="0 0 220.2 90" style="enable-background:new 0 0 220.2 90;" xml:space="preserve">
<style type="text/css">
	.st0{fill:#F05A28;}
	.st1{fill:#F05A28;stroke:#231F20;stroke-miterlimit:10;}
	.st2{fill:#808184;}
</style>
<g>
	<path class="st0" d="M189.9,0.1c-16.8,0-30.3,13.6-30.3,30.3c0,16.8,13.6,30.3,30.3,30.3s30.3-13.6,30.3-30.3
		C220.2,13.7,206.7,0.1,189.9,0.1z M189.9,49.8c-10.6,0-19.3-8.6-19.3-19.3c0-10.6,8.6-19.3,19.3-19.3s19.3,8.6,19.3,19.3
		C209.2,41.1,200.5,49.8,189.9,49.8z"/>
	<path class="st1" d="M61.4,0.3"/>
	<path class="st0" d="M209.7,60.8h-0.4V0.1h0.4c5.8,0,10.5,4.7,10.5,10.5v39.7C220.2,56.1,215.5,60.8,209.7,60.8z"/>
	<path class="st2" d="M143.4,70.2c-5.5,0-9.9,4.4-9.9,9.9c0,5.5,4.4,9.9,9.9,9.9s9.9-4.4,9.9-9.9C153.3,74.6,148.8,70.2,143.4,70.2z
		 M143.4,86.4c-3.5,0-6.3-2.8-6.3-6.3c0-3.5,2.8-6.3,6.3-6.3s6.3,2.8,6.3,6.3C149.7,83.6,146.8,86.4,143.4,86.4z"/>
	<rect x="149.7" y="70.2" class="st2" width="3.5" height="19.8"/>
	<path class="st2" d="M196.5,70.1c-5.5,0-10,4.5-10,10c0,5.5,4.5,10,10,10c5.5,0,10-4.5,10-10C206.5,74.5,202,70.1,196.5,70.1z
		 M196.5,86.4c-3.5,0-6.3-2.8-6.3-6.3c0-3.5,2.8-6.3,6.3-6.3c3.5,0,6.3,2.8,6.3,6.3C202.9,83.5,200,86.4,196.5,86.4z"/>
	<rect x="202.9" y="70.1" class="st2" width="3.6" height="19.9"/>
	<path class="st0" d="M132.8,30L132.8,30l0,30.7h11.1V30.4c0-10.6,8.6-19.3,19.3-19.3V0.1C146.5,0.1,133,13.4,132.8,30z"/>
	<path class="st2" d="M54.1,79.9L54.1,79.9l0,10.1h3.6V80c0-3.5,2.8-6.4,6.4-6.4V70C58.7,70,54.2,74.4,54.1,79.9z"/>
	<path class="st2" d="M210.2,79.9L210.2,79.9l0,10.1h3.6V80c0-3.5,2.8-6.4,6.4-6.4V70C214.8,70,210.3,74.4,210.2,79.9z"/>
	<path class="st2" d="M87.9,79.9L87.9,79.9l0,10.1h3.6V80c0-3.5,2.8-6.4,6.4-6.4V70C92.4,70,88,74.4,87.9,79.9z"/>
	<path class="st2" d="M107.9,79.9L107.9,79.9l0,10.1h-3.6V80c0-3.5-2.8-6.4-6.4-6.4V70C103.4,70,107.8,74.4,107.9,79.9z"/>
	<path class="st0" d="M99.8,60.8c8.5,0,16.1-3.5,21.6-9l-7.9-7.8c-3.5,3.6-8.3,5.8-13.7,5.8c-0.1,0-0.2,0-0.3,0v11.1
		C99.6,60.8,99.7,60.8,99.8,60.8z"/>
	<path class="st0" d="M104,35.3l25.9-0.1c0.3-1.6,0.4-3.2,0.4-4.8C130.2,13,115.6-1,97.9,0.1c-12.6,0.8-22.5,9-27,21.2L59.8,49.9
		l-17.4-45c-1.2-3-4-4.9-7.2-4.9h-5.8l22.8,55.7c1.3,3.1,4.3,5.1,7.6,5.1h0c3.3,0,6.4-2,7.6-5.1l5-12.2
		c4.9,10.2,15.3,17.3,27.4,17.3c13.2,0,24.4-8.4,28.6-20.2h-12.2c-3.7,5.9-10.5,9.7-18.1,9c-9-0.8-16.4-8-17.4-17
		C79.4,21,88.5,11.2,99.8,11.2c8.5,0,15.7,5.5,18.3,13.2H92.9C92.9,30.4,97.9,35.4,104,35.3z"/>
	<path class="st0" d="M34.6,0H0l0,0c1.9,5.8,6.7,9.6,12,9.6h22.6V0z"/>
	<path class="st0" d="M49.7,24.2H22.1l0,0c2.2,5.8,7.8,9.6,14,9.6h13.5V24.2z"/>
	<path class="st0" d="M45.1,12.1H10.9l0,0c2.2,5.8,7.8,9.6,14,9.6h20.2V12.1z"/>
	<rect x="114.6" y="70" class="st2" width="3.6" height="19.9"/>
	
		<rect x="114.6" y="70" transform="matrix(2.668449e-11 -1 1 2.668449e-11 40.5006 192.4446)" class="st2" width="3.6" height="12"/>
	<path class="st2" d="M174.6,86.3c-3.5,0-6.3-2.8-6.3-6.3c0-3.5,2.8-6.3,6.3-6.3c1.9,0,3.6,0.9,4.8,2.2h4.3c-1.6-3.4-5-5.8-9-5.8
		c-5.5,0-9.9,4.5-9.9,9.9c0,5.5,4.5,9.9,9.9,9.9c4,0,7.5-2.4,9-5.8h-4.3C178.2,85.5,176.5,86.3,174.6,86.3z"/>
	<g>
		<path class="st2" d="M85.6,78.3h-3.7c0.2,0.6,0.3,1.2,0.3,1.8c0,0.6-0.1,1.2-0.3,1.8h3.7c0.1-0.6,0.2-1.2,0.2-1.8
			C85.8,79.5,85.7,78.9,85.6,78.3z"/>
		<g>
			<path class="st2" d="M73.3,81.9h8.6c0.2-0.6,0.3-1.2,0.3-1.8c0-0.6-0.1-1.2-0.3-1.8h-8.6V81.9z"/>
			<path class="st2" d="M75.9,86.4c-3.5,0-6.3-2.8-6.3-6.3c0-3.5,2.8-6.3,6.3-6.3c2.8,0,5.2,1.9,6,4.5h3.7c-0.9-4.6-4.9-8.1-9.7-8.1
				c-5.5,0-9.9,4.4-9.9,9.9c0,5.5,4.4,9.9,9.9,9.9c4.1,0,7.6-2.5,9.1-6h-4.2C79.6,85.5,77.9,86.4,75.9,86.4z"/>
		</g>
	</g>
</g>
</svg>
