<?xml version="1.0" encoding="utf-8"?>
<!-- Generator: Adobe Illustrator 19.2.1, SVG Export Plug-In . SVG Version: 6.00 Build 0)  -->
<svg version="1.1" id="Layer_1" xmlns="http://www.w3.org/2000/svg" xmlns:xlink="http://www.w3.org/1999/xlink" x="0px" y="0px"
	 viewBox="0 0 226.8 70.9" style="enable-background:new 0 0 226.8 70.9;" xml:space="preserve">
<style type="text/css">
	.st0{fill:#FFFFFF;}
</style>
<g>
	<g>
		<path class="st0" d="M58.6,28.9c2.6,1.4,3.9,3.3,3.9,5.9v1.1c0,2.4-0.7,4.2-2.2,5.4s-3.5,1.8-6,1.8s-4.5-0.6-6-1.8s-2.2-3-2.2-5.4
			v-1.7h6.2V36c0,1,0.7,1.6,2,1.6s1.9-0.5,1.9-1.6v-0.8c0-0.8-0.4-1.4-1.2-1.9l-5-2.6c-2.6-1.4-3.9-3.4-3.9-5.9v-0.9
			c0-2.4,0.7-4.2,2.1-5.4c1.4-1.2,3.4-1.8,5.9-1.8s4.5,0.6,5.9,1.8c1.4,1.2,2.1,3,2.1,5.4v1.2H56v-1.4c0-1.1-0.6-1.7-1.8-1.7
			s-1.8,0.6-1.8,1.7v0.7c0,0.7,0.4,1.3,1.3,1.7L58.6,28.9z"/>
	</g>
	<g>
		<path class="st0" d="M71,35.7c0,1.2,0.7,1.7,2.1,1.7s2.1-0.6,2.1-1.7v-2h6.2v1.9c0,2.4-0.8,4.3-2.3,5.6s-3.5,1.9-6.1,1.9
			c-2.5,0-4.6-0.6-6.1-1.9c-1.5-1.3-2.3-3.1-2.3-5.6V24.2c0-2.4,0.8-4.3,2.3-5.6c1.5-1.3,3.5-1.9,6.1-1.9c2.5,0,4.6,0.6,6.1,1.9
			s2.3,3.1,2.3,5.6v7.6H71V35.7z M75.3,24c0-1.2-0.7-1.7-2.2-1.7c-1.4,0-2.1,0.6-2.1,1.7v2.8h4.3C75.3,26.8,75.3,24,75.3,24z"/>
	</g>
	<g>
		<path class="st0" d="M99.8,39.2h6.4v6.6h-6.4V39.2z"/>
	</g>
	<g>
		<path class="st0" d="M104.9,35.6V33h6.3v2.6c0,2.5-0.7,4.3-2.2,5.6s-3.5,1.9-6,1.9s-4.5-0.6-6-1.9c-1.5-1.3-2.2-3.1-2.2-5.6V24.2
			c0-2.5,0.7-4.3,2.2-5.6c1.5-1.3,3.5-1.9,6-1.9s4.5,0.6,6,1.9s2.2,3.1,2.2,5.6v2.6h-6.3v-2.6c0-1.2-0.6-1.7-1.9-1.7
			s-1.9,0.6-1.9,1.7v11.4c0,1.2,0.6,1.7,1.9,1.7C104.3,37.3,104.9,36.7,104.9,35.6z"/>
	</g>
	<g>
		<path class="st0" d="M130.7,17.1v25.5h-6V40c-0.2,0.7-0.7,1.4-1.6,1.9c-0.8,0.6-2,0.8-3.5,0.8c-1.9,0-3.3-0.6-4.3-1.7
			c-0.9-1.1-1.4-2.6-1.4-4.4V17.1h6.4v18.3c0,0.6,0.2,1.1,0.5,1.4c0.3,0.3,0.8,0.5,1.4,0.5s1.1-0.2,1.4-0.5s0.5-0.8,0.5-1.4V17.1
			H130.7z"/>
	</g>
	<g>
		<path class="st0" d="M144.4,42.6l-3.7-11.4v11.4h-6.4V17.1h6.4v10.3l3.7-10.3h6.4l-4.3,12.1l4.6,13.5L144.4,42.6L144.4,42.6z"/>
	</g>
	<g>
		<path class="st0" d="M179.7,17.1v25.5h-6V40c-0.2,0.7-0.7,1.4-1.6,1.9c-0.8,0.6-2,0.8-3.5,0.8c-1.9,0-3.3-0.6-4.3-1.7
			c-0.9-1.1-1.4-2.6-1.4-4.4V17.1h6.4v18.3c0,0.6,0.2,1.1,0.5,1.4c0.3,0.3,0.8,0.5,1.4,0.5s1.1-0.2,1.4-0.5c0.3-0.3,0.5-0.8,0.5-1.4
			V17.1H179.7z"/>
	</g>
	<g>
		<path class="st0" d="M206,24h-22.9v-6.9h29.5v0.3C212.6,21.1,209.6,24,206,24z"/>
	</g>
	<g>
		<path class="st0" d="M200.7,33.3h-17.6v-6.9h24.2v0.3C207.3,30.4,204.3,33.3,200.7,33.3z"/>
	</g>
	<g>
		<path class="st0" d="M195.2,42.6h-12.1v-6.9h18.7V36C201.8,39.7,198.8,42.6,195.2,42.6z"/>
	</g>
	<g>
		<path class="st0" d="M14.2,17.4v-0.3h29.5V24H20.8C17.1,24,14.2,21,14.2,17.4z"/>
	</g>
	<g>
		<path class="st0" d="M19.5,26.7v-0.3h24.2v6.9H26.1C22.4,33.3,19.5,30.3,19.5,26.7z"/>
	</g>
	<g>
		<path class="st0" d="M25,36v-0.3h18.7v6.9H31.6C28,42.6,25,39.6,25,36z"/>
	</g>
	<g>
		<path class="st0" d="M52.7,51.6c-0.3-0.1-0.7-0.1-1-0.1c-0.6,0-0.8,0.1-1.1,0.6c-0.3,0.3-0.6,0.8-0.6,1.3V62h-3.5V48.2h3.3v2
			c0-0.6,0.3-1,0.7-1.5c0.3-0.6,1-0.7,1.7-0.7c0.1,0,0.3,0,0.6,0C52.7,47.9,52.7,51.6,52.7,51.6z"/>
		<path class="st0" d="M62.9,58.3c0,0.7,0.3,1,1.1,1c0.8,0,1.1-0.3,1.1-1v-1.1h3.5v1c0,1.3-0.6,2.2-1.3,3.1c-0.8,0.7-2,1-3.2,1
			c-1.3,0-2.5-0.3-3.2-1c-0.8-0.7-1.3-1.7-1.3-3.1V52c0-1.3,0.6-2.2,1.3-3.1c0.8-0.7,2-1,3.2-1c1.3,0,2.5,0.3,3.2,1
			c0.8,0.7,1.3,1.7,1.3,3.1v4h-5.7C62.9,56,62.9,58.3,62.9,58.3z M65.1,51.8c0-0.7-0.3-1-1.1-1c-0.8,0-1.1,0.3-1.1,1v1.5h2.2
			C65.1,53.4,65.1,51.8,65.1,51.8z"/>
		<path class="st0" d="M76.3,62V48.2h3.2v1.5c0.1-0.6,0.6-0.8,1-1c0.4-0.1,1-0.6,1.7-0.6c1,0,1.8,0.3,2.2,0.8
			c0.6,0.6,0.8,1.3,0.8,2.2V62h-3.5v-9.9c0-0.3-0.1-0.7-0.3-0.8S80.9,51,80.6,51s-0.7,0.1-0.8,0.3c-0.1,0.1-0.3,0.6-0.3,0.8V62
			C79.7,62,76.3,62,76.3,62z"/>
		<path class="st0" d="M92.3,48.2h1.5l0.8-2.5h2.5v2.5h2.1v2.9h-2.1v7c0,0.6,0.3,0.8,0.8,0.8c0.3,0,0.6,0,0.7-0.1s0.3-0.1,0.6-0.1
			h0.1v3.1C98.9,62,98.2,62,97.4,62c-2.5,0-3.6-1.3-3.6-3.9V51h-1.3L92.3,48.2C92.5,48.2,92.3,48.2,92.3,48.2z"/>
		<path class="st0" d="M115.2,51.8c0-1.3,0.3-2.2,1.1-2.9c0.8-0.7,2-1,3.2-1c1.3,0,2.5,0.3,3.2,1c0.8,0.7,1.1,1.7,1.1,2.9v10h-3.5
			v-1.1c0,0.1-0.1,0.3-0.1,0.6s-0.3,0.3-0.7,0.6c-0.3,0.1-0.8,0.3-1.3,0.3c-1.1,0-2-0.3-2.5-0.8c-0.6-0.6-1-1.5-1-2.5V58
			c0-0.8,0.1-1.7,0.7-2.1c0.6-0.6,1.1-1,2.1-1.3l2.9-1.1v-1.7c0-0.7-0.3-0.8-1-0.8s-1,0.3-1,0.8v1h-3.6v-1
			C114.9,51.8,115.2,51.8,115.2,51.8z M118.7,58.4c0,0.7,0.3,1,1.1,1c0.7,0,1-0.3,1-1v-2l-1.1,0.6c-0.3,0.1-0.7,0.3-0.7,0.6
			S118.8,58.1,118.7,58.4L118.7,58.4L118.7,58.4L118.7,58.4z"/>
		<path class="st0" d="M146.9,58.1v-1.5h3.5v1.5c0,1.3-0.3,2.2-1.1,3.1c-0.8,0.8-2,1-3.2,1c-1.3,0-2.5-0.3-3.2-1
			c-0.8-0.7-1.1-1.7-1.1-3.1V52c0-1.3,0.3-2.2,1.1-3.1c0.8-0.8,2-1,3.2-1c1.3,0,2.5,0.3,3.2,1c0.7,0.7,1.1,1.7,1.1,3.1v1.5h-3.5V52
			c0-0.7-0.3-1-1-1s-1,0.3-1,1v6.1c0,0.7,0.3,1,1,1C146.5,59.1,146.9,58.7,146.9,58.1z"/>
		<path class="st0" d="M157.3,51.8c0-1.3,0.3-2.2,1.1-2.9s2-1,3.2-1s2.5,0.3,3.2,1c0.8,0.7,1.1,1.7,1.1,2.9v10h-3.5v-1.1
			c0,0.1-0.1,0.3-0.1,0.6s-0.3,0.3-0.7,0.6c-0.3,0.1-0.8,0.3-1.3,0.3c-1.1,0-2-0.3-2.5-0.8c-0.6-0.6-1-1.5-1-2.5V58
			c0-0.8,0.1-1.7,0.7-2.1c0.6-0.6,1.1-1,2.1-1.3l2.9-1.1v-1.7c0-0.7-0.3-0.8-1-0.8s-1,0.3-1,0.8v1h-3.5L157.3,51.8
			C157.2,51.8,157.3,51.8,157.3,51.8z M160.7,58.4c0,0.7,0.3,1,1.1,1c0.7,0,1-0.3,1-1v-2l-1.1,0.6c-0.3,0.1-0.7,0.3-0.7,0.6
			S160.8,58.1,160.7,58.4L160.7,58.4L160.7,58.4L160.7,58.4z"/>
		<path class="st0" d="M180.2,51.6c-0.3-0.1-0.7-0.1-1-0.1c-0.6,0-0.8,0.1-1.1,0.6c-0.3,0.3-0.6,0.8-0.6,1.3V62h-3.5V48.2h3.2v2
			c0-0.6,0.3-1,0.7-1.5c0.3-0.6,1-0.7,1.7-0.7c0.1,0,0.3,0,0.6,0V51.6L180.2,51.6z"/>
	</g>
	<path class="st0" d="M84.9,7.3L84.9,7.3c-3.6,0-6.5,2.9-6.5,6.5h6.5v28.8h6.4V7.3H84.9z"/>
	<path class="st0" d="M160.4,7.3L160.4,7.3H154v35.3h6.4V13.9v-0.1h6.6C167,10.2,164,7.3,160.4,7.3z"/>
</g>
</svg>
